<svg version="1.0" xmlns="http://www.w3.org/2000/svg" viewBox="0 0 300 72" fill="#00d342">
    <path d="M1 1.5c0 .4 1.3 2.3 3 4.2l3 3.4v53.8l-3 3.4c-1.7 1.9-3 3.7-3 4.1 0 .3 7 .6 15.5.6s15.5-.3 15.5-.6-.9-1.8-2-3.3c-2.1-3-4-12.7-4-20.4V42h3.8c5 0 7.8 2.9 10.3 11 2.3 7.4 2.4 11 .4 13.6-3.1 4.1-2.3 4.4 13 4.4 8.3 0 14.5-.4 14.5-.9s-1.4-2-3.1-3.2c-1.7-1.2-6.3-6.5-10.2-11.8-3.8-5.3-7.9-10.4-9.1-11.4-2-1.7-2-1.8-.2-3C55.9 34 59.3 29.4 59.3 21.6c0-5.8-1.8-9.8-6-13.7-6.4-6-8-6.4-31-6.7C10.6 1 1 1.1 1 1.5zm33.9 7c4 3.4 6.5 10.3 5.6 15.2-1.1 6.5-6.2 12.4-11.9 13.9l-2.6.6v-8.8c0-8.3 1.4-20.7 2.6-22.6.9-1.5 3.2-.8 6.3 1.7zM139.4 4.1c-7 4.5-12.4 6.9-16 6.9-4.5 0-4.8 1-1.2 4.7l3.3 3.4.3 18.2c.4 22.1 0 25.8-3.8 30.1-1.6 1.8-2.7 3.6-2.3 4 1 1 29.1.7 29.8-.3.3-.5-.3-2.4-1.4-4.3-1-1.8-2.4-6.2-3.1-9.8-1.5-7.9-1.5-39.3 0-46.9 1.2-6.5 1.3-9.1.2-9.1-.4 0-3 1.4-5.8 3.1zM162.3 2.5c-3.8 1.6-7.3 6.8-7.3 10.8 0 3.3 4 7.7 7.1 7.7 9.6 0 16.9-12.7 10.3-17.9-3.1-2.4-5.6-2.6-10.1-.6zM254 2.3c-1.4.7-4.4 2.5-6.7 4-2.3 1.4-8.3 3.8-13.3 5.2-10.4 2.9-12.4 4-13.9 7.1-.9 2.1-1.5 2.3-7.9 1.7-9.2-.8-16.5 1.4-21.2 6.2-3 3.1-3.5 4.3-3.5 8.3 0 6.7 2.4 9.5 13.1 15.8 5.2 3 9.8 6.4 10.4 7.4 1.7 3.3 1.2 7.8-1.1 9-2.8 1.6-4.9-.3-4.9-4.4 0-6.6-6-10.7-12.5-8.6-7.6 2.5-6.5 9.9 2.2 14.1 3.9 1.9 6.4 2.4 13.3 2.4 7.4 0 9.1-.4 13.5-2.8 6.3-3.5 8.8-6.8 8.8-11.9 0-4.9-2.3-7.4-13.1-14.5-7.5-4.8-12.2-9.8-12.2-12.9 0-.7.9-2.2 1.9-3.5 2.7-3.3 5.4-1.6 6.2 3.9.8 5.9 3.2 8.2 8.6 8.2 6.1 0 8.3-1.4 8.3-5.1 0-1.7-.4-3.9-1-4.9-.5-1-1.2-3.4-1.5-5.4-.5-2.7-.1-4 1.5-5.6 1.9-1.9 2.4-2 4.3-.7 4.2 2.7 4.7 5.2 4.7 25.5 0 20-.9 25.5-4.5 26.8-.8.3-1.5 1.2-1.5 2 0 1.1 2.7 1.4 14.3 1.4 7.9 0 14.6-.2 14.9-.5.3-.3-.3-2.3-1.4-4.4-2-4.1-3.3-11.2-4.3-23.6-.5-6.9-.3-8.4 1.4-11.2 7-11.2 14.3-6.3 17.2 11.5 1.4 8.7.1 19.1-3.1 23.4-1.1 1.5-2 3.2-2 3.8 0 .6 5.3 1 15 1 8.3 0 15-.3 15-.6 0-.4-1.3-2.2-3-4.1-2.8-3.2-3-3.9-3-11.7 0-22.3-8.1-34-23.6-34.1-5.2 0-6.6.4-9.9 2.9l-3.8 2.9.7-9.6c.3-5.3.9-11 1.2-12.7.7-3.3.1-3.6-3.6-1.7z" />
    <path d="M84.5 20.9c-5.8 1.6-8.4 3-12.6 6.8C59.1 39.3 61.7 59 77.2 67.6c4.7 2.6 6.3 2.9 13.8 2.9 6.8 0 9.3-.5 12.6-2.2 4.5-2.4 11.4-9.5 11.4-11.8 0-2-1.4-1.9-3.1.2-2 2.4-8.9 5.3-12.7 5.3-1.8 0-4.6-.7-6.1-1.5-2.9-1.4-8.1-6.9-8.1-8.5 0-.4 3.5-.6 7.8-.3 6.8.4 8.2.2 12.2-1.9 9.3-5 11.9-14.4 5.8-21.3-1.7-2-4.9-4.5-7-5.6-4.3-2.2-14.7-3.3-19.3-2zm9.1 2.9c4.3 2.8 5.8 14.9 2.6 21.2-3.5 7.1-10.9 3.3-11.9-6.3-1-9 4.6-18 9.3-14.9zM172 23.6c-6.7 4.6-11 6.4-15.5 6.4-2.4 0-3.5.4-3.5 1.5 0 .8.5 1.5 1 1.5.6 0 1.9 1.5 3 3.2 1.7 2.8 2 5.1 2 15 0 11.6 0 11.8-3 15.1-1.6 1.9-3 3.7-3 4.1 0 1 28.8.7 29.4-.3.3-.5-.1-1.4-.9-2.1-3.5-2.9-4.8-11.7-4.1-27 .3-8 .9-16 1.2-17.8.8-4.1-.1-4.1-6.6.4z" />
  </svg>  